<?xml version="1.0" encoding="UTF-8"?>
<svg version="1.1" xmlns="http://www.w3.org/2000/svg" width="48" height="48">
<path d="M0 0 C15.84 0 31.68 0 48 0 C48 15.84 48 31.68 48 48 C32.16 48 16.32 48 0 48 C0 32.16 0 16.32 0 0 Z " fill="#E32877" transform="translate(0,0)"/>
<path d="M0 0 C5.30199626 0.15594107 8.34550253 3.55613639 12 7 C12.28875 6.401875 12.5775 5.80375 12.875 5.1875 C14 3 14 3 16 0 C17.87939453 -0.34057617 17.87939453 -0.34057617 20.1328125 -0.29296875 C20.93847656 -0.28330078 21.74414062 -0.27363281 22.57421875 -0.26367188 C23.83685547 -0.2259668 23.83685547 -0.2259668 25.125 -0.1875 C25.97449219 -0.17396484 26.82398437 -0.16042969 27.69921875 -0.14648438 C29.79974837 -0.11108219 31.89995293 -0.05727401 34 0 C33.67 1.65 33.34 3.3 33 5 C30.36 5 27.72 5 25 5 C25.99 6.485 25.99 6.485 27 8 C26.67873872 10.63434254 26.18644952 12.62710097 25 15 C27.64 15 30.28 15 33 15 C33.495 17.475 33.495 17.475 34 20 C28.39 20 22.78 20 17 20 C16.67 19.01 16.34 18.02 16 17 C17.33333333 15 18.66666667 13 20 11 C19.67 10.01 19.34 9.02 19 8 C18.34 8 17.68 8 17 8 C15.61061923 9.96147874 14.2739589 11.96166576 13 14 C9.12867972 13.42647107 6.91827204 11.51295648 4 9 C4 12.63 4 16.26 4 20 C2.35 19.67 0.7 19.34 -1 19 C-1.02683987 16.02077407 -1.04676037 13.04178705 -1.0625 10.0625 C-1.07087891 9.21236328 -1.07925781 8.36222656 -1.08789062 7.48632812 C-1.09111328 6.67744141 -1.09433594 5.86855469 -1.09765625 5.03515625 C-1.10289307 4.2862915 -1.10812988 3.53742676 -1.11352539 2.76586914 C-1 1 -1 1 0 0 Z " fill="#F3E6EF" transform="translate(7,14)"/>
</svg>
